<svg version="1.2" xmlns="http://www.w3.org/2000/svg" viewBox="0 0 151 25" width="151" height="25">
	<title>new-logo</title>
	<style>
		.s0 { fill: #000000 } 
		.s1 { fill: #ffffff } 
		.s2 { fill: #ff395c } 
	</style>
	<path id="Layer" class="s0" d="m24.1 0.8h-24.1v24h24.1z"/>
	<path id="Layer" class="s1" d="m14.6 6.1h4.1v10.9l-2.6 2.5h-8.1l-2.6-2.5v-10.9h4.1v9.6l0.6 0.6h3.9l0.6-0.6z"/>
	<path id="Layer" class="s0" d="m48.9 24.8v-24h-24.1v24z"/>
	<path id="Layer" class="s1" d="m34.7 19.5v-10.2h-4.6v-3.2h13.4v3.2h-4.6v10.2z"/>
	<path id="Layer" class="s0" d="m73.6 0.8h-24.1v24h24.1z"/>
	<path id="Layer" fill-rule="evenodd" class="s1" d="m59 19.5h-4.1v-13.4h10.9l2.5 2.3v5.2l-2.5 2.2h-6.8zm4.5-10.1h-4.5v3.3h4.5l0.6-0.6v-2.2z"/>
	<path id="squad" fill-rule="evenodd" class="s0" d="m97.7 12.1c-0.2-1.1-0.8-1.5-2.3-1.5-1.2 0-1.8 0.3-1.8 0.9 0 0.7 0.7 1 2 1.4 1.3 0.3 2.6 0.6 3.6 1 1.3 0.5 2 1.3 2 2.8 0.1 2.4-1.8 3.8-5.2 3.8-3.7 0-5.8-1.7-5.9-4h3.3c0 1.1 1 1.7 2.6 1.7 1.1 0 2.1-0.3 2.1-1.2-0.1-0.8-1-1.1-2-1.3-2-0.5-3.2-0.8-4-1.3-1.2-0.7-1.6-1.6-1.6-2.7 0-1.9 1.3-3.4 5-3.4 3.5 0 5.1 1.3 5.3 3.8zm21.8 8.8c0 3-1.9 4.8-4.5 4.8-2.6 0-4.6-2-4.6-4.8l-0.1-2.1c-0.9 1.2-2 1.7-3.5 1.7-3.1 0-4.9-2.5-5-6-0.1-3.9 2-6.2 5.1-6.2 1.4 0 2.6 0.5 3.4 1.7v-1.4h3l0.2 12.3c0.1 1.6 0.7 2.1 1.7 2.1 0.9 0 1.3-0.6 1.3-2.1zm-9.1-6.8c0-1.9-1.2-3.3-2.7-3.3-1.6 0-2.7 1.4-2.7 3.5 0.1 2.4 1 3.6 2.8 3.6q2.7 0 2.6-3.8zm12.1 6.1v-1.6c-0.8 1.3-2 1.9-3.7 1.9-2.4 0-4.1-1.7-4.2-4.3l-0.1-7.6h3.2l0.1 7.2q0 2.2 2.1 2.1c1.6 0 2.4-1.1 2.4-2.6l-0.1-6.7h3.1l0.2 11.6zm12 0c-0.1-0.3-0.2-0.7-0.2-1-0.8 0.8-2 1.3-3.7 1.3-2.7 0-4-1.3-4-3.2-0.1-3.3 2.2-3.7 5.4-4.1 1.6-0.2 2-0.5 2-1.3 0-0.8-0.8-1.3-2-1.3-1.5 0-2.1 0.7-2.2 1.8h-2.9c0-2.4 1.3-4.1 5.2-4.1 3.8 0 5.1 1.6 5.2 4.6l0.1 7.3zm-0.3-5.7c-0.3 0.3-0.9 0.5-2 0.7-1.8 0.3-2.4 0.8-2.4 1.8 0 0.9 0.6 1.3 1.6 1.3 1.6 0 2.8-1.1 2.8-2.5zm13 5.7v-1.4c-0.8 1.2-1.9 1.7-3.3 1.7-3.1 0-5.3-2.3-5.4-6.2 0-3.6 1.7-6 4.8-6 1.5 0 2.7 0.5 3.7 1.8l-0.2-5.8h3.2l0.3 15.9zm-0.1-5.5q-0.1-3.8-2.7-3.8c-1.9 0-2.7 1.2-2.7 3.6 0.1 2.1 1.2 3.5 2.8 3.5 1.5 0 2.7-1.4 2.6-3.3z"/>
	<path id="Layer" class="s2" d="m90 14.7q0-2 0.6-3.5h-4.5v-5.3h-3.6v5.3h-5.3v3.6h5.3v5.2h3.6v-5.2h3.9q0 0 0-0.1z"/>
</svg>