<svg width="147" height="163" viewBox="0 0 147 163" fill="none" xmlns="http://www.w3.org/2000/svg">
<path d="M124.011 0H27.4565C25.8217 15.1723 12.471 21.3574 6 22.5535V48.695C6.17029 60.3134 6.91957 85.2931 8.55435 92.2642C14.6848 118.098 39.0362 140.959 50.4457 149.16L76.5 163C87.7391 156.507 112.159 141.677 119.924 134.296C141.585 112.972 147 82.696 147 70.2233C146.83 57.4088 146.591 29.9346 147 22.5535C131.061 20.5031 125.033 6.66352 124.011 0Z" fill="#548500"/>
<path d="M115.5 0H21C19.4 14.8 6.33333 20.8333 0 22V47.5C0.166667 58.8333 0.9 83.2 2.5 90C8.5 115.2 32.3333 137.5 43.5 145.5L69 159C80 152.667 103.9 138.2 111.5 131C132.7 110.2 138 80.6667 138 68.5C137.833 56 137.6 29.2 138 22C122.4 20 116.5 6.5 115.5 0Z" fill="#98C900"/>
<path d="M101.859 20H34.0652C32.9174 30.8906 23.5435 35.3302 19 36.1887V54.9528C19.1196 63.2925 19.6457 81.2226 20.7935 86.2264C25.0978 104.77 42.1957 121.179 50.2065 127.066L68.5 137C76.3913 132.34 93.537 121.694 98.9891 116.396C114.198 101.091 118 79.3585 118 70.4057C117.88 61.2076 117.713 41.4868 118 36.1887C106.809 34.717 102.576 24.783 101.859 20Z" fill="#D39B4D"/>
<path d="M96.8587 20H29.0652C27.9174 30.6113 18.5435 34.9371 14 35.7736V54.0566C14.1196 62.1824 14.6457 79.6528 15.7935 84.5283C20.0978 102.596 37.1957 118.585 45.2065 124.321L63.5 134C71.3913 129.459 88.537 119.087 93.9891 113.925C109.198 99.0113 113 77.8365 113 69.1132C112.88 60.1509 112.713 40.9358 113 35.7736C101.809 34.3396 97.5761 24.6604 96.8587 20Z" fill="#FFD80C"/>
</svg>
